<svg xmlns="http://www.w3.org/2000/svg" width="1650" height="1000" version="1.1" id="svg4">
  <path d="M38 709c-25-17-14 6-25 18-1 9 67 39 52 19-27-1 2-43-27-37zm304-95c-46 2-86 31-40 60 28 3 20-37 47-32 25-11 23-13-7-28zm-4 27c-41 26 76 54 27 10-24 5-9-3-27-10zm-10 16c-42 31 34 43 14 2l-14-2zm75-81c-23 11-18 41-45 46 3 6 14 16 0 13-32 21 33 20 27 52 7-38 52-18 55-44 39-41-59-8-37-43 5-6 11-20 0-24zm-122 72c-65 29 70 58 25 23-23 15-3-29-25-23zm-22 19c-21 18 7 61 35 52 32-26-23-40-35-52zm156-15c-16 5-54 58-11 44-9 46 63-49 11-44zm-99 33c-24 5-32 61-2 40-1-11 61 4 26-24-9-7-17-8-25-16zm131-79c-4 20-4 39-16 64-28 22-1 53 19 51 8-23 54-19 43-54 44-29 19-59-29-50-7-3-7-14-17-11zm-81 65c-18 5-58 19-31 28 22 7 47 62 59 23 32-24-15-30-12-34 5-17-10-11-16-17zm-16 44c-29 0-55 8-29 45 18 27 84-47 29-45zm70-12a63 63 0 00-30 87c4 12 23 49 44 10 5-23 57-33 3-38-16-36 29 6 32-21-9-12-36-28-49-38zm-170-7c-42 16 7 44 17 65-7 43 83 11 48-19-13-24-48-24-65-46zm124 36c-22 28-68 40-21 61 4 44 55 21 71 58 48 18 17-59-11-37-27-5-17-39-30-68 0-5-4-11-9-14zm326-310c-40 27-39 60-42 96-28-49-21-11-29 14-48 10-66 59-14 70 39 5 44 49 89 56 24 19 49-4 75 21 32-34 1-64-5-100-8-32 8-55-24-74 22-18 18-50 0-64 1 22-19 11-2 36-33 0-2-58-35-17 3 31-18 55 24 66 5 40-34-34-30 18-6 50-93 4-31 13 26-25 23-64 26-98 10-14 27-36-2-37zM471 736c-2 22-64 4-24 29 40 3-19 18-16 42 12 28 40 7 41-16 46 15 10-16 29-39-5-10-20-11-30-16zm110-180c-29 7-49 37-53 67 38 19 3 112 61 90 37-47 48 51 84 24 21-38 48-31 84-25 64 5 0-73-32-46-40-9-68-41-94-60-16-12-62-13-45-45-1-3 0-6-5-5zm28 142c-26 22-89 27-64 74 25 26 54 39 71 2-18-24-5-42 23-22 53 9-6-36-30-54zm-83-78c-24 28-28 59-47 83-49 4-19 39 14 43 24 3 49 17 55-16 41-3-16-49 3-74 2-15-18-25-25-36zm-14 125c-29 20-28 64 17 54 48 14 45-19 11-35 1-22-14-11-28-19zm188-41c-30 27-57 80 9 89 33 30 75 35 111 5 22-23-22-23 2-46-30-12-42-31-62-42-16 13-41-9-60-7zm223 165c-31 10-47 60-87 39-28 16-9 68 26 31 20-3 104 41 81-15 20-30 20-52-20-55zM614 738c-12 26 8 39-19 64-12 35 61 71 59 24 0-16 35-65 3-75-15 1-36 2-43-13zm244-503c-42 35 42 41 0 0zm57 84c-21 21-21 55-56 47-47 14-36 64-84 56-10 20 23 53-8 38-8 16 1 37-13 51 39 14 1 69 29 97 30 27-17 71 7 93-39 26 10 38 31 52-21 23 17 28-2 58-4 40 35 24 41 67-48 40 29 47 38 4 31-10 8-47 33-76-16-53 53-6 47-62 18 2 36 0 27-26-18-26 6-57-4-89 41-22-37 1-12-39-11-27-16-68-17-89 45-13 21-100-11-84-33 17 8-32 15-47 15-57-59-20-55-43 5-4-1-9-6-8zM673 780c-10 16-41 65-7 62-8 50 56-11 68 28 31 6 55-51 19-51-16-16-52-29-80-39zm142 26c-49-10-62 38-27 65 9 54 50 25 35-14-21-6 21-41-8-51zm80-527c-41 38 38 37 8 5-4 1-3-5-8-5zm-25-15c-50 16 43 52 8 1l-8-1zm145 356c-31 18-2 55-21 84 22 25 11 50-18 39-5 45-16 26-45 35 6 30-42 82-3 93 33 11 58 4 88 31 28 16 70-62 54-90-16-32 5-50 36-53 29 6 28-29 53-19-18-19-5-31 2-43-22-25-67-35-69 16-19-6-53 27-37-24-6-26-34-55-40-69zM819 835c-5 21 16 44-4 68-28 44 50 2 46-27-10-35-16-31-42-41zm339-129c-23 9 20 40-19 47 19 29 42 39 4 68 24 41-54 51-57 85-9 44 75 26 87-16 41 4 82-12 67-63-20-28 11-44-14-73-20-8-44-31-67-48zM718 851c-45 4-51 21-27 59 11 15 15 6 29 21 29 0 39 9 46-9 39-5 36-73-4-63-29 8-23 17-44-8zm423-113c-17 36-57 10-79 42 25 42 3 94-32 127-23-3-60-56-78-17 2 26 51 5 54 32 16 15 66 2 83-7-11-27 35-36 52-62 19-10 4-19 3-31 42-31 4-43-1-79 1-1 1-5-2-5zM797 897c-15 15-48 24-42 48 16 21 69 37 71 5 8-23-28-31-18-51l-11-2zm337-642c-30 10 23 29 0 0zm34-17c-60 17 11 34 0 0zm289 378c-4 23 25 56 51 74 27 22 56 87 70 53 16-5-63-29-35-55-3-21-68-44-86-72zm-135-369c-23 17-62 1-70 46-31-2-53 1-84 26-15 20 21 42-20 52-34-2 4 53-41 21-11-35-59-33-65 1-24 3-75-7-62 32 29 17 19 60-4 72-23 15 23 44 1 66 13 31 5 59 42 62 12 22 42 49 33 82 2 30 53 2 52-24 41-37 61 56 97 37 38 4 110 1 112-46-4-23-34-52-4-73 21-19 32-42 9-71-6-30 10-33 36-46-16-33-28-67 4-85 22-23-34-51 3-68 30-29-61-26-17-67 4-11-15-15-22-17zm-165 51c-43 23 25 13 0 0zm-39-39c-16 4-30 44 6 33 19-20 11-16-6-33zm355-208c-48 17 11 50-40 41-35 20-121 80-68 106-33 6-56 51-22 66-22 28 1 49 31 50 49 24 63-93 106-47 31-9 38-42 42-62-4-23 24-48-21-38-46 27 0-33-47-29-4-16 82-46 39-61-29 4 4-24-20-26zm-126 40c-36 13 20 53 0 0zm149 664c-17 19 18 20-1 35-5 23-45 23-23 62 8 23-44 26-4 52 2 22 8 48 15 7 60-15 45-113 20-153l-6-4v1zm-71-456c-23 24-65-3-59 31-32 8-14 37 0 56-20 28-49 39-18 78 6 20 46 0 38 34 40 14 49-53 69-24 35-42-6-45-11-90-2-47 58 8 30-47-22-14-31-20-50-38zm-60 170c-14 27-61 22-48 61 26 34 9 56-21 78-1 26 11 85 36 69 19 11-15 56 26 47 21-35 44-20 27 9-31 38 13 74 45 59 37-30 29 62 47 15 33-2 24-35 16-46 15 3 28 13 21-18-27-33-41-122-97-90 7 34-21 1-46 19 16-47 0-98 12-139 13-20 62-50 5-36-4-9 0-28-23-28zm84 318c-36-14-77 40-25 41 8-10 27-30 25-41zm60-564c1 73-70 1-89 69 5 15 76 69 43 27 20-40 33 43 43 69 13 31 7 65 34 89 28 21 64 32 95 50-19-40-25-88-46-112-9-22-11-29-35-41-40 22-40-59-28-72 21-21 18-57-8-81-9-6-8-1-9 2zm15 223h0zm-189 230c-30 16-54 42-89 45-24-18-82 15-38 20 29 3 16 63 62 33 32-9 50 26 74 42 27 18 87-21 34-37-3-27 4-55 18-64-8-48-28 18-46 5-44 11 9-35-15-44zM213 460c-40 1-52 91-14 69 9-23 36-48 14-69zm40 0c-49 19 38 20 0 0zm54 32c-39 14-45 55-4 63 4 34 47 13 68 42 33-1 30-46-5-43-50-11-18-64-59-62zm96-167c-18 7-42 61-41 45 12 29 30-2 33 43 48 66 64-34 33-67 6-22 1-20-25-21zM229 484c-15 1-35 36-12 40 24-8 66 31 54-4-6-21-20-32-42-36zm129-117c-36 20-39 71-80 72-41-4 38 76 26 46 45 45 47-39 63-64 28-12 3-43-9-54zm125 121c-5 34-17 45-46 19-7 7-7 35-14 49 59-31-34 63-16 35-25 55 42 2 54 24 48 19 76-2 94-47 19-17 85-21 76-55-11-9-61 35-82-8-16-21-46-19-66-17zm231-290c-43 1 22 18 0 0zm-48-8c-21 18 35 10 3 0zM83 438c-17 37 52 29 14 9-6-1-6-11-14-9zm174 2c-21 8 20 52-16 24-47-20-9 36 13 34 17 25 28 20 50-4 13-25-45-11-40-53l-7-1zm448-219c-19 10 16 9 0 0zm-4-15c-15 27 33 3 0 0zm-18-7c-56 7 12 30 0 0zM480 420c-13 19-38 32-22 56 32 19 82 11 117 43 26 17 74-9 58-37-27-42-32 22-53-6-34 4-37-8-37-20-27-11-67 21-75-4-1-17 48-2 12-33zm234-96c-55-1-98 27-136 61-30 24 34 79 17 20 18-52 110-51 119-81zm3-105c-21 14 19 11 0 0zm20 0c-41 12 25 16 0 0zM379 436c-4 29-12 19-32 24 5 28-42 56-3 76 22 17 45 26 60 40 31 24 55-43 17-24 21-22-2-65 41-29 30-1 15-42-5-50-11-29-51-29-66-13-12-3-1-22-12-24zM213 709c-22 18-18 46-34 64 11 21 50 11 69 15 16-13 32-29 3-40 3-20-21-32-38-39zm-38 8c-24 30-46 34-51 27 1 1 2 60 33 46 3 35 59 6 24-8-6-18 0-20 13-26 5-20 15-38-19-39zm-37 75c-37 15-3 59 6 72 55 11 32-62-6-72zm-27-45c-16 25-57 1-28 49-4 46 50 29 49-1 15-10-5-49-21-48zm-16 34c45 12-12 52 3 20 24-7-16-11-3-20zm39 83c-50 11 44 31 0 0zm-28-45c-34 24 41 41 14 4-8 7-8-4-14-4zm35 49c-18 45 54-12 4-2 0 2-7-3-4 2zm-19-25c-36 31 63 23 6 1-2 2-5-5-6-1zm84-61c-26-2-16 44-43 13-39-13 21 37 23 64 25 8 26-27 39-44-12-10-3-26-19-33zm-28 69c-35 10 16 44-33 49-4 42 40 51 30 4 11-12 22-49 3-53zm-84-71c17 6-14 52 11 28 18 9 8-30-11-28zm129 4c-9 24 6 45-20 69 45 22 47-22 34-49 1-11 3-24-14-20zm-57 89c-52 14 3 38 8 4-3-1-5-4-8-4zm31-210c-27 8-41 77 7 54 25-5 37-12 7-38-6-3-7-15-14-16zm91-113c-38 20-18 66 20 32 6-23-5-26-21-32zm-52 106c-50 14 16 79 17 22 4-21 8-16-17-22zm-32-138c-36 36 26 51 53 60 23 8 42-56-1-46-11-18-35 6-52-14zm21 87c-71 4 24 74 2 0zm36-18c-23 30 34 75 32 29-19-14-10-22-32-29zm-3 36c-69-5-12 63 13 32 16-9-6-26-13-32zm-75-87c-53 37 11 72 39 39 1-20-29-21-39-39zm50 31c-28 7-1 95 31 48-13-33 20-34-31-48zm14 24c11 30-30-2 0 0zm-65 21c-43 23 43 66 16 9 3-12-10-7-16-9zm22 28c-41 16 24 63 28 16-6-21-17-9-28-16zm41-50c-35 14 24 21 0 0zm-57-9c-43 42 66 39 30 4-10-3-21 3-30-4zm95 9c-27 19 46 48 36 20-3-20-21-14-36-20zm-126 32c-48 22 59 74 25 26-1-11-12-27-25-26zm-8 30c-3 12 24 63 25 49 23-25 1-44-25-49zm-4-71c-20 19 15 49 28 36 30-35 3-30-28-36zm182-7c-54 7-20 30 5 43 23 14 81-21 28-23-10-9-17-23-33-20z" id="path2" fill="#c4e1ff" fill-opacity=".3" stroke="#fff" stroke-width="2.1" stroke-linecap="round" stroke-linejoin="round" stroke-opacity=".5"/>
  <circle id="city5" cx="254.7" cy="458.8" r="10.9" opacity="1" fill="#fff" fill-opacity="1" fill-rule="nonzero" stroke="none" stroke-width="5.1" stroke-linecap="butt" stroke-linejoin="round" stroke-miterlimit="4" stroke-dasharray="none" stroke-dashoffset="0" stroke-opacity=".5" paint-order="stroke markers fill"/>
  <circle id="city1" cx="219.5" cy="622.5" r="10.9" opacity="1" fill="#fff" fill-opacity="1" fill-rule="nonzero" stroke="none" stroke-width="5.1" stroke-linecap="butt" stroke-linejoin="round" stroke-miterlimit="4" stroke-dasharray="none" stroke-dashoffset="0" stroke-opacity=".5" paint-order="stroke markers fill"/>
  <circle id="city4" cx="225.6" cy="736.2" r="10.9" opacity="1" fill="#fff" fill-opacity="1" fill-rule="nonzero" stroke="none" stroke-width="5.1" stroke-linecap="butt" stroke-linejoin="round" stroke-miterlimit="4" stroke-dasharray="none" stroke-dashoffset="0" stroke-opacity=".5" paint-order="stroke markers fill"/>
  <circle id="city6" cx="97.8" cy="772.7" r="10.9" opacity="1" fill="#fff" fill-opacity="1" fill-rule="nonzero" stroke="none" stroke-width="5.1" stroke-linecap="butt" stroke-linejoin="round" stroke-miterlimit="4" stroke-dasharray="none" stroke-dashoffset="0" stroke-opacity=".5" paint-order="stroke markers fill"/>
  <circle id="city2" cx="244.1" cy="668.9" r="10.9" opacity="1" fill="#fff" fill-opacity="1" fill-rule="nonzero" stroke="none" stroke-width="5.1" stroke-linecap="butt" stroke-linejoin="round" stroke-miterlimit="4" stroke-dasharray="none" stroke-dashoffset="0" stroke-opacity=".5" paint-order="stroke markers fill"/>
  <circle id="city3" cx="330" cy="601.7" r="10.9" opacity="1" fill="#fff" fill-opacity="1" fill-rule="nonzero" stroke="none" stroke-width="5.1" stroke-linecap="butt" stroke-linejoin="round" stroke-miterlimit="4" stroke-dasharray="none" stroke-dashoffset="0" stroke-opacity=".5" paint-order="stroke markers fill"/>
  <circle id="city8" cx="535" cy="670.6" r="10.9" opacity="1" fill="#fff" fill-opacity="1" fill-rule="nonzero" stroke="none" stroke-width="5.1" stroke-linecap="butt" stroke-linejoin="round" stroke-miterlimit="4" stroke-dasharray="none" stroke-dashoffset="0" stroke-opacity=".5" paint-order="stroke markers fill"/>
  <circle id="city7" cx="422.7" cy="818.9" r="10.9" opacity="1" fill="#fff" fill-opacity="1" fill-rule="nonzero" stroke="none" stroke-width="5.1" stroke-linecap="butt" stroke-linejoin="round" stroke-miterlimit="4" stroke-dasharray="none" stroke-dashoffset="0" stroke-opacity=".5" paint-order="stroke markers fill"/>
  <circle id="city9" cx="716.7" cy="839.2" r="10.9" opacity="1" fill="#fff" fill-opacity="1" fill-rule="nonzero" stroke="none" stroke-width="5.1" stroke-linecap="butt" stroke-linejoin="round" stroke-miterlimit="4" stroke-dasharray="none" stroke-dashoffset="0" stroke-opacity=".5" paint-order="stroke markers fill"/>
  <circle id="city10" cx="1030.5" cy="884.9" r="10.9" opacity="1" fill="#fff" fill-opacity="1" fill-rule="nonzero" stroke="none" stroke-width="5.1" stroke-linecap="butt" stroke-linejoin="round" stroke-miterlimit="4" stroke-dasharray="none" stroke-dashoffset="0" stroke-opacity=".5" paint-order="stroke markers fill"/>
  <circle id="city11" cx="1464.5" cy="767.5" r="10.9" opacity="1" fill="#fff" fill-opacity="1" fill-rule="nonzero" stroke="none" stroke-width="5.1" stroke-linecap="butt" stroke-linejoin="round" stroke-miterlimit="4" stroke-dasharray="none" stroke-dashoffset="0" stroke-opacity=".5" paint-order="stroke markers fill"/>
  <path d="M98 774l144-180" id="path988" fill="none" stroke="#fff" stroke-width="3" stroke-linecap="butt" stroke-linejoin="miter" stroke-opacity="1" stroke-miterlimit="4" stroke-dasharray="none"/>
  <path d="M225 737l17-143" id="path990" fill="none" stroke="#fff" stroke-width="3" stroke-linecap="butt" stroke-linejoin="miter" stroke-opacity="1" stroke-miterlimit="4" stroke-dasharray="none"/>
  <path d="M244 670l-2-76" id="path990-8" fill="none" stroke="#fff" stroke-width="3" stroke-linecap="butt" stroke-linejoin="miter" stroke-miterlimit="4" stroke-dasharray="none" stroke-opacity="1"/>
  <path d="M331 601l-89-7" id="path990-9" fill="none" stroke="#fff" stroke-width="3" stroke-linecap="butt" stroke-linejoin="miter" stroke-miterlimit="4" stroke-dasharray="none" stroke-opacity="1"/>
  <path d="M254 458l-12 136" id="path990-0" fill="none" stroke="#fff" stroke-width="3" stroke-linecap="butt" stroke-linejoin="miter" stroke-miterlimit="4" stroke-dasharray="none" stroke-opacity="1"/>
  <path d="M423 820L242 594" id="path990-2" fill="none" stroke="#fff" stroke-width="3" stroke-linecap="butt" stroke-linejoin="miter" stroke-miterlimit="4" stroke-dasharray="none" stroke-opacity="1"/>
  <path d="M535 670l-293-76" id="path990-23" fill="none" stroke="#fff" stroke-width="3" stroke-linecap="butt" stroke-linejoin="miter" stroke-miterlimit="4" stroke-dasharray="none" stroke-opacity="1"/>
  <path d="M717 839L242 594" id="path990-5" fill="none" stroke="#fff" stroke-width="3" stroke-linecap="butt" stroke-linejoin="miter" stroke-miterlimit="4" stroke-dasharray="none" stroke-opacity="1"/>
  <path d="M1031 885L242 594" id="path990-22" fill="none" stroke="#fff" stroke-width="3" stroke-linecap="butt" stroke-linejoin="miter" stroke-miterlimit="4" stroke-dasharray="none" stroke-opacity="1"/>
  <path d="M1465 767L242 596" id="path990-80" fill="none" stroke="#fff" stroke-width="3" stroke-linecap="butt" stroke-linejoin="miter" stroke-miterlimit="4" stroke-dasharray="none" stroke-opacity="1"/>
  <circle id="city0" cx="241.8" cy="595.6" r="10.9" opacity="1" fill="#fff" fill-opacity="1" fill-rule="nonzero" stroke="none" stroke-width="5.1" stroke-linecap="butt" stroke-linejoin="round" stroke-miterlimit="4" stroke-dasharray="none" stroke-dashoffset="0" stroke-opacity=".5" paint-order="stroke markers fill"/>
</svg>
