<svg xmlns="http://www.w3.org/2000/svg" xmlns:xlink="http://www.w3.org/1999/xlink" version="1.1" width="792" height="612" viewBox="0 0 792 612">
<defs>
<clipPath id="clip_0">
<path transform="matrix(1,0,0,-1,0,612)" d="M0 612H792V0H0Z"/>
</clipPath>
</defs>
<g id="layer_1" data-name="Слой 1">
<g clip-path="url(#clip_0)">
<path transform="matrix(1,0,0,-1,399.625,210.4888)" d="M0 0H-3.424C-5.575 0-7.167-1.752-7.167-3.823V-34.164C-7.167-36.234-5.575-37.986-3.424-37.986H0C2.07-37.986 3.742-36.314 3.742-34.244V-3.743C3.742-1.672 2.07 0 0 0M.876-44.277H-4.3C-9.397-44.277-13.538-39.738-13.538-34.642V-3.345C-13.538 1.752-9.397 6.291-4.3 6.291H.876C5.893 6.291 10.113 1.752 10.113-3.345V-34.642C10.113-39.738 5.893-44.277 .876-44.277" fill="#ffffff"/>
<path transform="matrix(1,0,0,-1,444.9375,248.39551)" d="M0 0C2.149 0 3.344 1.672 3.344 3.743V34.084C3.344 36.155 2.149 37.827 0 37.827H-.797C-2.071 37.827-4.858 35.836-6.371 34.721V3.106C-4.858 1.911-2.071 0-.797 0ZM-19.113 37.827C-21.264 37.827-22.458 36.155-22.458 34.084V3.743C-22.458 1.672-21.264 0-19.113 0H-18.316C-17.043 0-14.256 1.911-12.742 3.106V34.642C-14.256 35.836-17.043 37.827-18.316 37.827ZM-6.371 54.312V40.853H-5.177C-3.027 42.764-1.036 44.198 1.512 44.198 6.609 44.198 9.715 40.295 9.715 35.358V2.469C9.715-2.469 6.609-6.371 1.512-6.371-1.036-6.371-3.027-4.937-5.177-3.026H-6.371V-21.422H-12.742V-3.026H-13.938C-16.087-4.937-18.078-6.371-20.627-6.371-25.723-6.371-28.828-2.469-28.828 2.469V35.358C-28.828 40.295-25.723 44.198-20.627 44.198-18.078 44.198-16.087 42.764-13.938 40.853H-12.742V54.312Z" fill="#ffffff"/>
<path transform="matrix(1,0,0,-1,468.0293,254.3682)" d="M0 0V43.561H-8.601V49.772H15.051V43.561H6.371V0Z" fill="#ffffff"/>
<path transform="matrix(1,0,0,-1,504.2637,230.47751)" d="M0 0H-7.168C-9.238 0-10.91-1.672-10.91-3.743V-14.175C-10.91-16.246-9.317-17.918-7.168-17.918H-6.371C-4.619-17.918-.876-15.051 0-14.175ZM.716-23.891 .159-20.944H-1.514C-3.664-22.855-6.133-24.289-8.681-24.289-13.777-24.289-17.281-20.387-17.281-15.449V-2.469C-17.281 2.469-13.3 6.371-8.441 6.371H0V16.325C0 18.396-1.434 20.068-3.584 20.068H-5.894C-7.964 20.068-9.796 18.396-9.796 16.325V10.831H-15.29L-15.848 17.44C-15.848 22.377-10.91 26.28-6.053 26.28H-2.708C2.229 26.28 6.37 22.377 6.37 17.44V-23.891Z" fill="#ffffff"/>
<path transform="matrix(1,0,0,-1,515.4111,248.9531)" d="M0 0 2.708 .796 6.849 44.357H25.244V-5.415H18.874V37.986H12.503L8.282-5.415H0Z" fill="#ffffff"/>
<path transform="matrix(1,0,0,-1,553.3975,248.15671)" d="M0 0H7.167C9.237 0 10.91 1.672 10.91 3.743V15.529C10.91 17.6 9.237 19.272 7.167 19.272H0ZM17.28 2.548C17.28-2.389 13.299-6.211 8.441-6.211H-6.371V43.561H0V25.563H8.441C13.299 25.563 17.28 21.741 17.28 16.803Z" fill="#ffffff"/>
<path transform="matrix(1,0,0,-1,577.127,254.3682)" d="M0 0V49.772H12.9L17.042 23.97H18.236L22.378 49.772H35.278V0H28.987V43.401H27.634L23.413 17.679H11.865L7.645 43.401H6.291V0Z" fill="#ffffff"/>
<path transform="matrix(1,0,0,-1,632.3125,210.4888)" d="M0 0H-3.425C-5.574 0-7.167-1.752-7.167-3.823V-34.164C-7.167-36.234-5.574-37.986-3.425-37.986H0C2.07-37.986 3.743-36.314 3.743-34.244V-3.743C3.743-1.672 2.07 0 0 0M.876-44.277H-4.301C-9.397-44.277-13.538-39.738-13.538-34.642V-3.345C-13.538 1.752-9.397 6.291-4.301 6.291H.876C5.893 6.291 10.113 1.752 10.113-3.345V-34.642C10.113-39.738 5.893-44.277 .876-44.277" fill="#ffffff"/>
<path transform="matrix(1,0,0,-1,223.3086,347.042)" d="M0 0C-41.308 0-74.793 33.485-74.793 74.793-74.793 116.1-41.308 149.586 0 149.586 41.307 149.586 74.793 116.1 74.793 74.793 74.793 33.485 41.307 0 0 0M42.971 173.49C35.107 176.07-6.411 188.972-56.811 170.37-119.855 147.1-153.411 90.666-163.73 71.519L-164.269 71.515C-164.186 71.36-164.087 71.179-164 71.017-164.087 70.856-164.186 70.674-164.269 70.519L-163.735 70.524C-153.421 51.386-119.865-5.062-56.811-28.335-42.588-33.585-3.806-47.26 42.971-31.455 110.477-8.647 143.272 58.188 150.429 73.639 142.428 89.522 108.962 151.837 42.971 173.49" fill="#ffffff"/>
<path transform="matrix(1,0,0,-1,223.3086,197.45609)" d="M0 0C-41.308 0-74.793-33.486-74.793-74.793-74.793-116.101-41.308-149.586 0-149.586 41.307-149.586 74.793-116.101 74.793-74.793 74.793-33.486 41.307 0 0 0" fill="none"/>
<path transform="matrix(1,0,0,-1,234.3975,190.56879)" d="M0 0C-7.22-11.043-11.403-24.245-11.403-38.415-11.403-77.324 20.152-108.878 59.061-108.878 60.95-108.878 62.839-108.811 64.684-108.653 67.067-100.782 68.35-92.438 68.35-83.801 68.35-42.44 38.999-7.962 0 0" fill="#ffffff"/>
<path transform="matrix(1,0,0,-1,298.1016,270.6353)" stroke-width="6.200" stroke-linecap="butt" stroke-miterlimit="10" stroke-linejoin="miter" fill="none" stroke="#bfcfde" d="M0 0C0-41.307-33.486-74.793-74.793-74.793-116.101-74.793-149.586-41.307-149.586 0-149.586 41.307-116.101 74.793-74.793 74.793-33.486 74.793 0 41.307 0 0Z"/>
<path transform="matrix(1,0,0,-1,361.2588,364.6777)" d="M0 0V-.616L1.737-4.595H-.056L-2.157-1.232V.588L-.056 3.978H1.737ZM-3.922 0V-.616L-2.185-4.595H-3.978L-6.079-1.232V.588L-3.978 3.978H-2.185Z" fill="#ffffff"/>
<path transform="matrix(1,0,0,-1,366.9189,372.94239)" d="M0 0H-2.241V22.048H2.297L4.118 13.083H4.679L6.5 22.048H11.038V0H8.797V19.807H8.32L6.527 10.842H2.269L.476 19.807H0Z" fill="#ffffff"/>
<path transform="matrix(1,0,0,-1,390.1729,372.94239)" d="M0 0H-2.241V10.842H-7.732V0H-9.974V22.048H-7.732V13.083H-2.241V22.048H0Z" fill="#ffffff"/>
<path transform="matrix(1,0,0,-1,397.7383,372.94239)" d="M0 0H-2.242V19.807H-5.968V22.048H3.726V19.807H0Z" fill="#ffffff"/>
<path transform="matrix(1,0,0,-1,412.6426,352.8555)" d="M0 0-.84-.28-2.745-8.013-.336-17.846 .505-18.126V-20.087H-2.017L-4.678-9.245H-7.34V-20.087H-9.58V1.961H-7.34V-7.004H-4.734L-2.521 1.961H0Z" fill="#ffffff"/>
<path transform="matrix(1,0,0,-1,427.7725,364.6777)" d="M0 0V-.616L1.737-4.595H-.056L-2.157-1.232V.588L-.056 3.978H1.737ZM-3.922 0V-.616L-2.185-4.595H-3.978L-6.079-1.232V.588L-3.978 3.978H-2.185Z" fill="#ffffff"/>
<path transform="matrix(1,0,0,-1,433.4326,372.94239)" d="M0 0H-2.241V22.048H2.298L4.118 13.083H4.679L6.499 22.048H11.038V0H8.797V19.807H8.32L6.527 10.842H2.269L.476 19.807H0Z" fill="#ffffff"/>
<path transform="matrix(1,0,0,-1,448.9541,355.4336)" d="M0 0V-15.268H.196L2.185 0H6.388V-17.509H4.146V-2.24H3.95L1.989-17.509H-2.241V0Z" fill="#ffffff"/>
<path transform="matrix(1,0,0,-1,466.0449,372.94239)" d="M0 0H-2.494L-4.455 8.404H-6.22V0H-8.461V17.509H-6.22V10.646H-4.511L-2.662 17.509H-.364L-2.521 9.722-.729 2.186 0 1.905Z" fill="#ffffff"/>
<path transform="matrix(1,0,0,-1,473.8057,358.8506)" d="M0 0C0 .728-.561 1.316-1.317 1.316H-1.597C-2.214 1.316-3.53 .308-3.839 0V-10.674C-3.53-10.982-2.214-11.99-1.597-11.99H-1.317C-.561-11.99 0-11.402 0-10.674ZM2.241-11.122C2.241-12.859 1.008-14.231-.785-14.231-1.682-14.231-2.55-13.728-3.306-13.056H-3.839V-19.526H-6.079V3.417H-4.118L-3.839 2.381H-3.306C-2.55 3.054-1.682 3.558-.785 3.558 1.008 3.558 2.241 2.185 2.241 .448Z" fill="#ffffff"/>
<path transform="matrix(1,0,0,-1,483.0518,357.50593)" d="M0 0H-1.204C-1.961 0-2.521-.617-2.521-1.345V-12.019C-2.521-12.747-1.961-13.363-1.204-13.363H0C.729-13.363 1.317-12.775 1.317-12.047V-1.316C1.317-.588 .729 0 0 0M.309-15.576H-1.513C-3.306-15.576-4.763-13.979-4.763-12.187V-1.177C-4.763 .616-3.306 2.213-1.513 2.213H.309C2.073 2.213 3.559 .616 3.559-1.177V-12.187C3.559-13.979 2.073-15.576 .309-15.576" fill="#ffffff"/>
<path transform="matrix(1,0,0,-1,493.082,362.2969)" d="M0 0H.812L2.746 6.863H5.071L2.886-.952 5.211-10.646H2.886L.869-2.241H-.027L-2.045-10.646H-4.37L-2.045-.952-4.23 6.863H-1.904Z" fill="#ffffff"/>
<path transform="matrix(1,0,0,-1,502.6367,355.4336)" d="M0 0V-15.268H.195L2.185 0H6.387V-17.509H4.146V-2.24H3.949L1.988-17.509H-2.242V0Z" fill="#ffffff"/>
<path transform="matrix(1,0,0,-1,528.5527,355.4336)" d="M0 0H2.241L.336-19.946C.168-21.768-1.205-22.943-2.773-22.943L-4.314-22.804V-20.702H-3.222C-2.605-20.702-1.934-20.254-1.877-19.638L-1.682-17.509H-4.482L-6.164 0H-3.922L-2.466-15.268H-1.485Z" fill="#ffffff"/>
<path transform="matrix(1,0,0,-1,539.1152,358.8506)" d="M0 0C0 .728-.561 1.316-1.317 1.316H-1.598C-2.214 1.316-3.53 .308-3.838 0V-10.674C-3.53-10.982-2.214-11.99-1.598-11.99H-1.317C-.561-11.99 0-11.402 0-10.674ZM2.241-11.122C2.241-12.859 1.008-14.231-.785-14.231-1.682-14.231-2.55-13.728-3.306-13.056H-3.838V-19.526H-6.08V3.417H-4.118L-3.838 2.381H-3.306C-2.55 3.054-1.682 3.558-.785 3.558 1.008 3.558 2.241 2.185 2.241 .448Z" fill="#ffffff"/>
<path transform="matrix(1,0,0,-1,518.1836,358.6084)" d="M0 0C0 .728-.561 1.316-1.317 1.316H-1.598C-2.214 1.316-3.53 .308-3.838 0V-10.674C-3.53-10.982-2.214-11.99-1.598-11.99H-1.317C-.561-11.99 0-11.402 0-10.674ZM2.241-11.122C2.241-12.859 1.008-14.231-.785-14.231-1.682-14.231-2.55-13.728-3.306-13.056H-3.838V-19.526H-6.08V3.417H-4.118L-3.838 2.381H-3.306C-2.55 3.054-1.682 3.558-.785 3.558 1.008 3.558 2.241 2.185 2.241 .448Z" fill="#ffffff"/>
<path transform="matrix(1,0,0,-1,543.5977,372.94239)" d="M0 0V17.509H6.64V15.324H2.242V0Z" fill="#ffffff"/>
<path transform="matrix(1,0,0,-1,554.7207,355.4336)" d="M0 0V-15.268H.196L2.186 0H6.388V-17.509H4.146V-2.24H3.95L1.989-17.509H-2.24V0Z" fill="#ffffff"/>
<path transform="matrix(1,0,0,-1,565.5918,362.8291)" d="M0 0C0-.729 .561-1.316 1.317-1.316H3.755V5.211H1.317C.561 5.211 0 4.622 0 3.895ZM-2.24 4.286C-2.24 6.023-.868 7.396 .869 7.396H5.996V-10.113H3.755V-3.502H1.737L.617-10.113H-2.24V-8.208L-1.204-7.928-.447-3.222C-1.513-2.745-2.24-1.652-2.24-.392Z" fill="#ffffff"/>
<path transform="matrix(1,0,0,-1,580.5527,372.94239)" d="M0 0V17.509H6.64V15.324H2.242V0Z" fill="#ffffff"/>
<path transform="matrix(1,0,0,-1,587.7539,371.0371)" d="M0 0 .952 .28 2.409 15.604H8.881V-1.905H6.64V13.363H4.398L2.913-1.905H0Z" fill="#ffffff"/>
<path transform="matrix(1,0,0,-1,604.957,364.5381)" d="M0 0H-2.521C-3.25 0-3.838-.588-3.838-1.316V-4.986C-3.838-5.715-3.278-6.303-2.521-6.303H-2.241C-1.625-6.303-.309-5.295 0-4.986ZM.252-8.404 .056-7.368H-.532C-1.289-8.04-2.157-8.544-3.054-8.544-4.847-8.544-6.08-7.172-6.08-5.435V-.868C-6.08 .869-4.679 2.241-2.97 2.241H0V5.743C0 6.472-.505 7.06-1.261 7.06H-2.073C-2.802 7.06-3.446 6.472-3.446 5.743V3.811H-5.379L-5.575 6.136C-5.575 7.872-3.838 9.245-2.13 9.245H-.953C.784 9.245 2.241 7.872 2.241 6.136V-8.404Z" fill="#ffffff"/>
<path transform="matrix(1,0,0,-1,615.2393,369.5527)" d="M0 0V3.727C0 4.398-.532 4.987-1.205 5.043H-3.278V7.256H-1.457C-.784 7.312-.252 7.872-.252 8.573V10.73C-.252 11.459-.841 12.047-1.569 12.047H-2.409C-3.166 12.047-3.727 11.43-3.727 10.702V8.825H-5.827L-5.968 11.066C-5.968 12.803-4.511 14.26-2.773 14.26H-1.205C.504 14.26 1.989 12.803 1.989 11.066V8.152C1.989 7.564 1.597 6.864 1.036 6.5V6.079C1.681 5.715 2.241 4.847 2.241 4.146V-.14C2.241-1.933 .756-3.529-1.009-3.529H-2.83C-4.623-3.529-6.079-1.933-6.079-.14V2.998H-3.838V.028C-3.838-.7-3.278-1.316-2.521-1.316H-1.317C-.589-1.316 0-.729 0 0" fill="#ffffff"/>
<path transform="matrix(1,0,0,-1,625.7744,364.5381)" d="M0 0H-2.521C-3.25 0-3.839-.588-3.839-1.316V-4.986C-3.839-5.715-3.278-6.303-2.521-6.303H-2.241C-1.625-6.303-.309-5.295 0-4.986ZM.252-8.404 .056-7.368H-.532C-1.289-8.04-2.157-8.544-3.054-8.544-4.847-8.544-6.079-7.172-6.079-5.435V-.868C-6.079 .869-4.679 2.241-2.97 2.241H0V5.743C0 6.472-.505 7.06-1.261 7.06H-2.073C-2.802 7.06-3.446 6.472-3.446 5.743V3.811H-5.379L-5.575 6.136C-5.575 7.872-3.839 9.245-2.13 9.245H-.953C.784 9.245 2.241 7.872 2.241 6.136V-8.404Z" fill="#ffffff"/>
<path transform="matrix(1,0,0,-1,633.6191,360.7002)" d="M0 0H1.793L3.895-3.39V-5.21L1.793-8.572H0L1.737-4.594V-3.978ZM-3.922 0H-2.129L-.028-3.39V-5.21L-2.129-8.572H-3.922L-2.186-4.594V-3.978Z" fill="#ffffff"/>
<path transform="matrix(1,0,0,-1,357.4209,389.0547)" d="M0 0V-15.269H.196L2.185 0H6.388V-17.51H4.146V-2.241H3.95L1.989-17.51H-2.241V0Z" fill="#ffffff"/>
<path transform="matrix(1,0,0,-1,366.0503,406.5645)" d="M0 0V17.51H4.539L5.995 8.433H6.416L7.872 17.51H12.411V0H10.198V15.269H9.721L8.236 6.22H4.174L2.689 15.269H2.213V0Z" fill="#ffffff"/>
<path transform="matrix(1,0,0,-1,0,612)" d="M380.563 208.153H383.25199V205.435H380.563Z" fill="#ffffff"/>
<path transform="matrix(1,0,0,-1,398.1582,398.16023)" d="M0 0H-2.521C-3.25 0-3.838-.588-3.838-1.316V-4.986C-3.838-5.715-3.278-6.303-2.521-6.303H-2.242C-1.625-6.303-.309-5.295 0-4.986ZM.252-8.404 .056-7.368H-.533C-1.289-8.04-2.157-8.544-3.054-8.544-4.847-8.544-6.08-7.172-6.08-5.435V-.868C-6.08 .869-4.679 2.241-2.97 2.241H0V5.743C0 6.472-.504 7.061-1.261 7.061H-2.073C-2.802 7.061-3.446 6.472-3.446 5.743V3.811H-5.379L-5.575 6.136C-5.575 7.872-3.838 9.245-2.129 9.245H-.953C.784 9.245 2.24 7.872 2.24 6.136V-8.404Z" fill="#ffffff"/>
<path transform="matrix(1,0,0,-1,411.1016,406.5645)" d="M0 0H-2.492L-4.453 8.404H-6.219V0H-8.46V17.51H-6.219V10.646H-4.51L-2.66 17.51H-.363L-2.521 9.722-.728 2.186 0 1.905Z" fill="#ffffff"/>
<path transform="matrix(1,0,0,-1,418.8633,398.16023)" d="M0 0H-2.521C-3.25 0-3.838-.588-3.838-1.316V-4.986C-3.838-5.715-3.277-6.303-2.521-6.303H-2.241C-1.625-6.303-.309-5.295 0-4.986ZM.252-8.404 .057-7.368H-.532C-1.289-8.04-2.157-8.544-3.054-8.544-4.847-8.544-6.079-7.172-6.079-5.435V-.868C-6.079 .869-4.678 2.241-2.969 2.241H0V5.743C0 6.472-.504 7.061-1.261 7.061H-2.072C-2.801 7.061-3.445 6.472-3.445 5.743V3.811H-5.379L-5.574 6.136C-5.574 7.872-3.838 9.245-2.129 9.245H-.952C.785 9.245 2.241 7.872 2.241 6.136V-8.404Z" fill="#ffffff"/>
<path transform="matrix(1,0,0,-1,426.1768,404.3789)" d="M0 0H3.53V13.083H1.288ZM-3.25-5.127V0H-2.157L-.7 15.324H5.771V0H6.751V-5.127H5.099L4.79-2.186H-1.288L-1.597-5.127Z" fill="#ffffff"/>
<path transform="matrix(1,0,0,-1,0,612)" d="M434.75 208.153H437.439V205.435H434.75Z" fill="#ffffff"/>
<path transform="matrix(1,0,0,-1,456.1543,398.7764)" d="M0 0V-4.034C0-6.191-1.736-7.928-3.895-7.928H-5.995C-8.124-7.928-9.889-6.191-9.889-4.034V10.506C-9.889 12.663-8.124 14.399-5.995 14.399H-3.895C-1.736 14.399 0 12.663 0 10.506V7.845H-2.241V10.506C-2.241 11.431-2.969 12.159-3.895 12.159H-5.995C-6.892 12.159-7.648 11.431-7.648 10.506V-4.034C-7.648-4.959-6.892-5.687-5.995-5.687H-3.895C-2.969-5.687-2.241-4.959-2.241-4.034V0Z" fill="#ffffff"/>
<path transform="matrix(1,0,0,-1,0,612)" d="M458.257 208.153H460.94599V205.435H458.257Z" fill="#ffffff"/>
<path transform="matrix(1,0,0,-1,473.0205,406.5645)" d="M0 0H-2.241V10.842H-7.731V0H-9.974V22.048H-7.731V13.083H-2.241V22.048H0Z" fill="#ffffff"/>
<path transform="matrix(1,0,0,-1,0,612)" d="M475.123 208.153H477.81199V205.435H475.123Z" fill="#ffffff"/>
<path transform="matrix(1,0,0,-1,489.0469,399.39259)" d="M0 0H2.997C3.922 0 4.65 .729 4.65 1.653V8.74C4.65 9.665 3.922 10.394 2.997 10.394H0ZM-2.241 0V10.394H-5.239C-6.164 10.394-6.893 9.665-6.893 8.74V1.653C-6.893 .729-6.164 0-5.239 0ZM-2.241-2.241H-5.239C-7.396-2.241-9.133-.504-9.133 1.653V8.74C-9.133 10.897-7.396 12.635-5.239 12.635H-2.241V14.876H0V12.635H2.997C5.154 12.635 6.892 10.897 6.892 8.74V1.653C6.892-.504 5.154-2.241 2.997-2.241H0V-7.172H-2.241Z" fill="#ffffff"/>
<path transform="matrix(1,0,0,-1,0,612)" d="M503 226.951H505.101V224.681H503ZM500.422 216.025H504.036V219.583C504.036 220.312 503.476 220.9 502.72 220.9H501.739C501.011 220.9 500.422 220.312 500.422 219.583ZM499.386 226.951H501.48799V224.681H499.386ZM506.277 211.823V208.518C506.277 206.78 504.849 205.296 503.111 205.296H501.291C499.582 205.296 498.182 206.668 498.182 208.405V219.976C498.182 221.712 499.582 223.085 501.291 223.085H503.168C504.904 223.085 506.277 221.712 506.277 219.976V213.84H500.422V208.797C500.422 208.069 501.011 207.48 501.739 207.48H502.748C503.504 207.48 504.064 208.069 504.064 208.797V211.823Z" fill="#ffffff"/>
<path transform="matrix(1,0,0,-1,511.3496,404.3789)" d="M0 0H3.53V13.083H1.289ZM-3.25-5.127V0H-2.157L-.7 15.324H5.771V0H6.752V-5.127H5.099L4.791-2.186H-1.289L-1.597-5.127Z" fill="#ffffff"/>
<path transform="matrix(1,0,0,-1,524.8252,391.1279)" d="M0 0H-1.204C-1.961 0-2.521-.616-2.521-1.345V-12.019C-2.521-12.747-1.961-13.363-1.204-13.363H0C.729-13.363 1.317-12.775 1.317-12.047V-1.317C1.317-.589 .729 0 0 0M.309-15.576H-1.513C-3.306-15.576-4.763-13.979-4.763-12.187V-1.177C-4.763 .616-3.306 2.213-1.513 2.213H.309C2.073 2.213 3.559 .616 3.559-1.177V-12.187C3.559-13.979 2.073-15.576 .309-15.576" fill="#ffffff"/>
<path transform="matrix(1,0,0,-1,536.7061,392.47273)" d="M0 0C0 .729-.561 1.316-1.317 1.316H-1.597C-2.214 1.316-3.53 .308-3.839 0V-10.674C-3.53-10.982-2.214-11.99-1.597-11.99H-1.317C-.561-11.99 0-11.402 0-10.674ZM2.241-11.122C2.241-12.859 1.008-14.231-.785-14.231-1.682-14.231-2.55-13.728-3.306-13.056H-3.839V-19.526H-6.079V3.418H-4.118L-3.839 2.381H-3.306C-2.55 3.054-1.682 3.558-.785 3.558 1.008 3.558 2.241 2.185 2.241 .448Z" fill="#ffffff"/>
<path transform="matrix(1,0,0,-1,545.9512,391.1279)" d="M0 0H-1.204C-1.961 0-2.521-.616-2.521-1.345V-12.019C-2.521-12.747-1.961-13.363-1.204-13.363H0C.729-13.363 1.317-12.775 1.317-12.047V-1.317C1.317-.589 .729 0 0 0M.309-15.576H-1.513C-3.306-15.576-4.762-13.979-4.762-12.187V-1.177C-4.762 .616-3.306 2.213-1.513 2.213H.309C2.073 2.213 3.559 .616 3.559-1.177V-12.187C3.559-13.979 2.073-15.576 .309-15.576" fill="#ffffff"/>
<path transform="matrix(1,0,0,-1,553.9922,404.3516)" d="M0 0H2.521C3.25 0 3.839 .589 3.839 1.317V4.903C3.839 5.575 3.307 6.164 2.634 6.22H0ZM0 8.433H2.382C3.054 8.489 3.586 9.049 3.586 9.75V11.767C3.586 12.495 2.998 13.083 2.27 13.083H0ZM6.08 .953C6.08-.784 4.623-2.213 2.914-2.213H-2.24V15.297H2.662C4.371 15.297 5.828 13.868 5.828 12.131V9.329C5.828 8.741 5.436 8.041 4.875 7.677V7.256C5.52 6.892 6.08 6.023 6.08 5.323Z" fill="#ffffff"/>
<path transform="matrix(1,0,0,-1,568.3945,398.16023)" d="M0 0H-2.521C-3.25 0-3.838-.588-3.838-1.316V-4.986C-3.838-5.715-3.278-6.303-2.521-6.303H-2.241C-1.625-6.303-.309-5.295 0-4.986ZM.252-8.404 .056-7.368H-.532C-1.289-8.04-2.157-8.544-3.054-8.544-4.847-8.544-6.08-7.172-6.08-5.435V-.868C-6.08 .869-4.679 2.241-2.97 2.241H0V5.743C0 6.472-.505 7.061-1.261 7.061H-2.073C-2.802 7.061-3.446 6.472-3.446 5.743V3.811H-5.379L-5.575 6.136C-5.575 7.872-3.838 9.245-2.13 9.245H-.953C.784 9.245 2.241 7.872 2.241 6.136V-8.404Z" fill="#ffffff"/>
<path transform="matrix(1,0,0,-1,576.2393,394.3223)" d="M0 0H1.793L3.895-3.39V-5.21L1.793-8.572H0L1.737-4.594V-3.978ZM-3.922 0H-2.129L-.028-3.39V-5.21L-2.129-8.572H-3.922L-2.186-4.594V-3.978Z" fill="#ffffff"/>
<path transform="matrix(1,0,0,-1,588.96,403.84669)" d="M0 0H2.689V-3.138L1.429-5.855H.561L1.121-3.138V-2.718H0Z" fill="#ffffff"/>
<path transform="matrix(1,0,0,-1,601.6074,406.4355)" d="M0 0H-2.24V22.048H2.298L4.119 13.083H4.679L6.5 22.048H11.038V0H8.797V19.807H8.321L6.528 10.842H2.27L.477 19.807H0Z" fill="#ffffff"/>
<path transform="matrix(1,0,0,-1,619.6504,390.999)" d="M0 0H-1.204C-1.961 0-2.521-.616-2.521-1.345V-12.019C-2.521-12.747-1.961-13.363-1.204-13.363H0C.729-13.363 1.317-12.775 1.317-12.047V-1.317C1.317-.589 .729 0 0 0M.309-15.576H-1.513C-3.306-15.576-4.762-13.979-4.762-12.187V-1.177C-4.762 .616-3.306 2.213-1.513 2.213H.309C2.073 2.213 3.559 .616 3.559-1.177V-12.187C3.559-13.979 2.073-15.576 .309-15.576" fill="#ffffff"/>
<path transform="matrix(1,0,0,-1,627.6934,403.0459)" d="M0 0C0-.729 .588-1.316 1.316-1.316H2.521C3.277-1.316 3.838-.7 3.838 .028V2.998H6.079V-.14C6.079-1.933 4.622-3.529 2.829-3.529H1.008C-.757-3.529-2.242-1.933-2.242-.14V11.066C-2.242 12.803-.757 14.26 .952 14.26H2.829C4.566 14.26 6.022 12.803 6.022 11.066L5.883 8.825H3.781V10.702C3.781 11.431 3.222 12.047 2.465 12.047H1.316C.588 12.047 0 11.458 0 10.729Z" fill="#ffffff"/>
<path transform="matrix(1,0,0,-1,644.4746,406.4355)" d="M0 0H-2.493L-4.454 8.404H-6.219V0H-8.461V17.51H-6.219V10.646H-4.511L-2.661 17.51H-.364L-2.521 9.722-.729 2.186 0 1.905Z" fill="#ffffff"/>
<path transform="matrix(1,0,0,-1,648.3984,404.22273)" d="M0 0H2.521C3.249 0 3.838 .589 3.838 1.317V4.903C3.838 5.575 3.306 6.164 2.633 6.22H0ZM0 8.433H2.381C3.053 8.489 3.586 9.049 3.586 9.75V11.767C3.586 12.495 2.997 13.083 2.269 13.083H0ZM6.079 .953C6.079-.784 4.622-2.213 2.913-2.213H-2.242V15.297H2.661C4.37 15.297 5.826 13.868 5.826 12.131V9.329C5.826 8.741 5.435 8.041 4.874 7.677V7.256C5.519 6.892 6.079 6.023 6.079 5.323Z" fill="#ffffff"/>
<path transform="matrix(1,0,0,-1,662.7998,398.0313)" d="M0 0H-2.521C-3.25 0-3.839-.588-3.839-1.316V-4.986C-3.839-5.715-3.278-6.303-2.521-6.303H-2.241C-1.625-6.303-.309-5.295 0-4.986ZM.252-8.404 .056-7.368H-.532C-1.289-8.04-2.157-8.544-3.054-8.544-4.847-8.544-6.079-7.172-6.079-5.435V-.868C-6.079 .869-4.679 2.241-2.97 2.241H0V5.743C0 6.472-.505 7.061-1.261 7.061H-2.073C-2.802 7.061-3.446 6.472-3.446 5.743V3.811H-5.379L-5.575 6.136C-5.575 7.872-3.839 9.245-2.13 9.245H-.953C.784 9.245 2.241 7.872 2.241 6.136V-8.404Z" fill="#ffffff"/>
<path transform="matrix(1,0,0,-1,667.1426,403.7178)" d="M0 0H2.689V-3.138L1.429-5.855H.561L1.121-3.138V-2.718H0Z" fill="#ffffff"/>
<path transform="matrix(1,0,0,-1,680.8984,396.1543)" d="M0 0H3.278C4.203 0 4.932 .729 4.932 1.653V7.873C4.932 8.797 4.203 9.525 3.278 9.525H0ZM0-10.281H-2.24V11.767H3.278C5.436 11.767 7.172 10.029 7.172 7.873V1.653C7.172-.504 5.436-2.241 3.278-2.241H0Z" fill="#ffffff"/>
<path transform="matrix(1,0,0,-1,695.0752,390.999)" d="M0 0H-1.204C-1.961 0-2.521-.616-2.521-1.345V-12.019C-2.521-12.747-1.961-13.363-1.204-13.363H0C.729-13.363 1.317-12.775 1.317-12.047V-1.317C1.317-.589 .729 0 0 0M.309-15.576H-1.513C-3.306-15.576-4.763-13.979-4.763-12.187V-1.177C-4.763 .616-3.306 2.213-1.513 2.213H.309C2.073 2.213 3.559 .616 3.559-1.177V-12.187C3.559-13.979 2.073-15.576 .309-15.576" fill="#ffffff"/>
<path transform="matrix(1,0,0,-1,703.1172,403.0459)" d="M0 0C0-.729 .588-1.316 1.316-1.316H2.521C3.277-1.316 3.838-.7 3.838 .028V2.998H6.079V-.14C6.079-1.933 4.622-3.529 2.829-3.529H1.008C-.757-3.529-2.242-1.933-2.242-.14V11.066C-2.242 12.803-.757 14.26 .952 14.26H2.829C4.566 14.26 6.022 12.803 6.022 11.066L5.883 8.825H3.781V10.702C3.781 11.431 3.222 12.047 2.465 12.047H1.316C.588 12.047 0 11.458 0 10.729Z" fill="#ffffff"/>
<path transform="matrix(1,0,0,-1,713.6797,403.0459)" d="M0 0C0-.729 .588-1.316 1.316-1.316H2.521C3.277-1.316 3.838-.7 3.838 .028V2.998H6.079V-.14C6.079-1.933 4.622-3.529 2.829-3.529H1.008C-.757-3.529-2.242-1.933-2.242-.14V11.066C-2.242 12.803-.757 14.26 .952 14.26H2.829C4.566 14.26 6.022 12.803 6.022 11.066L5.883 8.825H3.781V10.702C3.781 11.431 3.222 12.047 2.465 12.047H1.316C.588 12.047 0 11.458 0 10.729Z" fill="#ffffff"/>
<path transform="matrix(1,0,0,-1,724.2422,388.92579)" d="M0 0V-15.269H.196L2.186 0H6.388V-17.51H4.146V-2.241H3.95L1.989-17.51H-2.24V0Z" fill="#ffffff"/>
<path transform="matrix(1,0,0,-1,735.1133,396.3223)" d="M0 0C0-.729 .56-1.316 1.316-1.316H3.754V5.211H1.316C.56 5.211 0 4.623 0 3.895ZM-2.242 4.286C-2.242 6.023-.869 7.396 .868 7.396H5.995V-10.113H3.754V-3.502H1.736L.616-10.113H-2.242V-8.208L-1.205-7.928-.449-3.222C-1.514-2.745-2.242-1.652-2.242-.392Z" fill="#ffffff"/>
<path transform="matrix(1,0,0,-1,400.2119,284.0229)" d="M0 0H-3.425C-5.576 0-7.168-1.752-7.168-3.823V-34.165C-7.168-36.235-5.576-37.987-3.425-37.987H0C2.07-37.987 3.742-36.314 3.742-34.244V-3.743C3.742-1.672 2.07 0 0 0M.875-44.278H-4.301C-9.398-44.278-13.539-39.739-13.539-34.641V-3.345C-13.539 1.752-9.398 6.291-4.301 6.291H.875C5.893 6.291 10.113 1.752 10.113-3.345V-34.641C10.113-39.739 5.893-44.278 .875-44.278" fill="#ffffff"/>
<path transform="matrix(1,0,0,-1,416.6953,327.9023)" d="M0 0V49.772H6.37V30.182H17.28V49.772H23.651V0H17.28V23.97H6.37V0Z" fill="#ffffff"/>
<path transform="matrix(1,0,0,-1,470.7666,327.9023)" d="M0 0H-7.088L-12.662 23.891H-17.68V0H-24.05V49.772H-17.68V30.262H-12.821L-7.565 49.772H-1.035L-7.167 27.634-2.07 6.211 0 5.415Z" fill="#ffffff"/>
<path transform="matrix(1,0,0,-1,489.082,284.0229)" d="M0 0H-3.425C-5.574 0-7.167-1.752-7.167-3.823V-34.165C-7.167-36.235-5.574-37.987-3.425-37.987H0C2.07-37.987 3.743-36.314 3.743-34.244V-3.743C3.743-1.672 2.07 0 0 0M.876-44.278H-4.301C-9.397-44.278-13.538-39.739-13.538-34.641V-3.345C-13.538 1.752-9.397 6.291-4.301 6.291H.876C5.893 6.291 10.113 1.752 10.113-3.345V-34.641C10.113-39.739 5.893-44.278 .876-44.278" fill="#ffffff"/>
<path transform="matrix(1,0,0,-1,503.9736,322.4873)" d="M0 0 2.708 .796 6.849 44.357H25.244V-5.415H18.874V37.986H12.503L8.282-5.415H0Z" fill="#ffffff"/>
<path transform="matrix(1,0,0,-1,549.126,284.0229)" d="M0 0H-3.425C-5.574 0-7.167-1.752-7.167-3.823V-34.165C-7.167-36.235-5.574-37.987-3.425-37.987H0C2.07-37.987 3.743-36.314 3.743-34.244V-3.743C3.743-1.672 2.07 0 0 0M.876-44.278H-4.301C-9.397-44.278-13.538-39.739-13.538-34.641V-3.345C-13.538 1.752-9.397 6.291-4.301 6.291H.876C5.893 6.291 10.113 1.752 10.113-3.345V-34.641C10.113-39.739 5.893-44.278 .876-44.278" fill="#ffffff"/>
<path transform="matrix(1,0,0,-1,565.6094,327.9023)" d="M0 0V49.772H18.873V43.561H6.371V0Z" fill="#ffffff"/>
<path transform="matrix(1,0,0,-1,597.2236,278.1299)" d="M0 0V-43.401H.557L6.211 0H18.156V-49.772H11.786V-6.371H11.229L5.653-49.772H-6.371V0Z" fill="#ffffff"/>
<path transform="matrix(1,0,0,-1,628.1201,299.1538)" d="M0 0C0-2.071 1.593-3.743 3.742-3.743H10.671V14.812H3.742C1.593 14.812 0 13.14 0 11.069ZM-6.371 12.184C-6.371 17.122-2.469 21.024 2.469 21.024H17.042V-28.749H10.671V-9.955H4.937L1.752-28.749H-6.371V-23.333L-3.425-22.538-1.274-9.159C-4.301-7.804-6.371-4.699-6.371-1.115Z" fill="#ffffff"/>
<path transform="matrix(1,0,0,-1,354.1914,338.7988)" stroke-width="4" stroke-linecap="butt" stroke-miterlimit="10" stroke-linejoin="miter" fill="none" stroke="#ffffff" d="M0 0H389.144"/>
</g>
</g>
</svg>
